# xmcd CD database file
# Copyright (C) 1997 Ti Kan
# 
# Track frame offsets:
#     150
#     17330
#     38087
# 
# Disc length: 760 seconds
# 
# Revision: 1
# Processed by: cddbd v1.4b41PL1 Copyright (c) Steve Scherf et al.
# Submitted via: DiscPlay 4.0.4
# 
DISCID=1402f603
DTITLE=Human Nature - Whisper Your Name
DYEAR=1900
DGENRE=
TTITLE0=Whisper Your Name (Radio Edit)
TTITLE1=Wishes(Carl McIntosh's R&B Mix)
TTITLE2=Carl McIntosh's Urban Alternative Mix)
EXTD=
EXTT0=
EXTT1=
EXTT2=
PLAYORDER=
